# xmcd
#
# Track frame offsets:
#	150
#	19701
#	35590
#	50318
#	69586
#	87805
#	102927
#	119424
#	144073
#	166204
#	183373
#	205116
#	222657
#
# Disc length: 3182 seconds
#
# Revision: 1
# Processed by: cddbd v1.5.2PL0 Copyright (c) Steve Scherf et al.
# Submitted via: audiograbber 1.83.01
#
DISCID=af0c6c0d
DTITLE=Kathleen Vandenhoudt - Gracious
DYEAR=2009
DGENRE=
TTITLE0=Don't Ever Stop Carressing Me
TTITLE1=Moon
TTITLE2=The One Breaking Glass
TTITLE3=Framed My Dad
TTITLE4=Dance Naked Dance
TTITLE5=Kiss The Longing
TTITLE6=Fuse Your Brain
TTITLE7=Let It Burn
TTITLE8=We All Got It In Mind
TTITLE9=Be Your Own Zorro
TTITLE10=Gracious
TTITLE11=Obsession
TTITLE12=Little Song For Little You
EXTD=
EXTT0=
EXTT1=
EXTT2=
EXTT3=
EXTT4=
EXTT5=
EXTT6=
EXTT7=
EXTT8=
EXTT9=
EXTT10=
EXTT11=
EXTT12=
PLAYORDER=
